<?xml version="1.0" encoding="UTF-8"?>
<svg xmlns="http://www.w3.org/2000/svg" width="1024" height="1024" viewBox="-160 -160 1344 1344">
  <defs>
    <linearGradient id="green" x1="0" y1="0" x2="0" y2="1">
      <stop offset="0" stop-color="#7BF06E"/>
      <stop offset="1" stop-color="#34D399"/>
    </linearGradient>
  </defs>
  <rect x="-160" y="-160" width="1344" height="1344" fill="#0A1628"/>
  <g transform="translate(0,1024) scale(0.1,-0.1)" fill="url(#green)" stroke="none">
<path d="M4775 9374 c-703 -78 -1354 -349 -1912 -795 -160 -128 -461 -429
-574 -574 -150 -192 -280 -389 -364 -553 -40 -78 -45 -94 -45 -154 0 -37 5
-87 11 -110 11 -40 10 -47 -23 -113 -80 -159 -179 -432 -238 -655 -151 -569
-175 -1055 -79 -1623 11 -65 51 -250 90 -410 108 -450 106 -439 86 -481 -57
-121 -81 -352 -53 -516 9 -52 47 -194 85 -315 38 -121 100 -317 136 -435 183
-588 221 -683 319 -802 166 -200 388 -276 625 -213 29 7 55 15 56 17 2 2 -18
69 -45 148 -243 720 -673 2135 -791 2597 -126 500 -153 685 -152 1058 1 331
41 620 128 930 35 124 133 390 186 506 30 65 33 68 106 104 62 31 82 47 120
98 25 34 54 80 65 102 12 22 62 103 113 180 401 612 1039 1065 1768 1255 675
176 1415 107 2052 -190 382 -178 747 -459 1044 -804 70 -81 200 -269 282 -408
93 -156 144 -211 219 -239 l59 -21 62 -147 c96 -224 182 -508 224 -729 24
-127 54 -398 61 -552 11 -245 -26 -610 -87 -860 -16 -69 -52 -219 -80 -334
-27 -115 -68 -270 -90 -345 -23 -75 -58 -194 -79 -266 -41 -139 -160 -532
-215 -705 -18 -58 -52 -166 -75 -240 -110 -356 -200 -638 -292 -917 -38 -117
-67 -216 -64 -221 7 -11 97 -29 186 -38 166 -15 368 79 485 225 110 138 134
198 330 826 182 579 193 618 209 704 32 168 16 377 -40 517 -13 33 -24 70 -24
83 0 12 36 164 80 339 137 547 155 677 155 1117 0 313 -9 429 -51 675 -52 302
-158 645 -286 928 l-60 132 17 64 c22 80 12 135 -46 249 -237 470 -701 981
-1189 1307 -474 318 -956 501 -1550 591 -181 28 -661 35 -855 13z"/>
<path d="M5690 7966 c-78 -22 -138 -56 -189 -108 -127 -128 -145 -310 -51
-510 52 -110 35 -190 -47 -224 -28 -12 -49 -12 -149 1 -63 8 -134 12 -157 9
-70 -9 -179 -36 -242 -59 -33 -13 -94 -28 -135 -35 -160 -26 -458 -92 -520
-116 -36 -13 -86 -40 -112 -59 -87 -64 -201 -238 -380 -581 -52 -98 -122 -224
-157 -279 -101 -159 -119 -224 -83 -295 34 -69 183 -160 263 -160 44 0 50 3
119 72 39 39 76 82 81 95 14 38 11 85 -11 154 -18 59 -18 65 -3 98 10 20 64
81 122 135 178 168 286 282 312 330 l24 46 155 1 c85 0 193 6 240 13 47 8 88
10 92 7 4 -4 13 -87 20 -185 9 -137 9 -204 0 -290 -20 -183 -48 -256 -176
-444 -138 -202 -184 -357 -157 -532 54 -353 386 -553 1289 -776 171 -42 312
-81 312 -86 0 -4 -27 -40 -60 -80 -93 -111 -136 -214 -170 -413 -50 -292 -77
-400 -121 -488 -26 -50 -90 -120 -155 -168 -70 -51 -98 -100 -98 -164 1 -60
22 -102 103 -209 33 -44 84 -122 113 -174 87 -156 186 -252 259 -252 51 0 82
16 104 52 22 37 16 90 -22 197 -38 110 -44 294 -14 404 23 86 74 193 130 277
21 30 68 107 106 170 37 63 74 122 81 130 17 21 163 265 268 447 123 215 139
262 134 389 -3 89 -7 108 -36 166 -80 164 -402 408 -802 608 -216 108 -520
220 -641 236 -90 12 -143 -34 -105 -91 21 -32 81 -62 280 -140 433 -170 811
-386 1012 -578 92 -86 114 -130 114 -223 0 -61 -5 -78 -43 -154 -47 -93 -171
-318 -262 -475 -328 -562 -364 -639 -384 -800 -15 -124 0 -254 45 -397 14 -44
23 -83 20 -86 -14 -14 -98 96 -141 186 -26 53 -74 134 -106 179 -97 134 -97
143 1 218 64 50 113 105 154 176 39 68 110 293 151 475 56 254 85 319 194 439
75 82 82 92 91 130 16 72 -26 140 -109 176 -24 11 -134 42 -245 70 -442 111
-708 196 -913 294 -133 63 -181 95 -251 166 -71 71 -95 136 -96 254 -1 125 23
191 131 352 141 210 183 319 205 537 11 102 1 336 -19 479 -5 35 -4 38 33 53
54 22 74 42 74 75 0 66 -57 78 -252 50 -195 -28 -344 -41 -464 -41 -122 0
-148 -13 -208 -105 -55 -84 -136 -178 -225 -261 -76 -72 -175 -192 -204 -249
-25 -50 -29 -90 -18 -170 10 -71 9 -80 -9 -109 -10 -18 -28 -40 -38 -49 -16
-15 -21 -15 -67 7 -28 13 -61 35 -74 49 -21 23 -22 29 -11 61 6 19 46 89 88
155 42 66 98 155 123 198 261 443 346 558 443 598 45 19 210 55 432 94 93 17
210 45 259 62 95 34 161 39 400 30 76 -3 98 0 142 19 86 37 144 115 167 222 9
39 41 54 72 33 13 -8 24 -19 24 -24 0 -5 18 -32 40 -59 66 -84 232 -147 331
-126 57 12 80 47 110 166 19 78 28 97 56 122 18 16 33 37 33 45 0 9 -12 48
-25 86 -14 39 -34 118 -44 177 -10 59 -29 127 -41 152 -50 105 -154 184 -269
206 -71 13 -185 11 -241 -4z"/>
<path d="M7124 6970 c-21 -17 -54 -40 -72 -51 -18 -12 -40 -35 -49 -52 -31
-61 -34 -89 -16 -173 14 -68 14 -86 4 -112 -14 -33 -100 -113 -253 -235 -53
-43 -108 -91 -122 -107 -24 -29 -46 -39 -46 -22 0 16 -79 114 -164 203 -48 51
-99 116 -118 152 -43 80 -140 183 -215 226 -32 19 -86 51 -121 73 -73 44 -91
46 -120 15 -52 -55 -11 -129 107 -194 103 -57 146 -97 215 -203 36 -53 104
-139 151 -191 48 -52 109 -125 135 -164 53 -78 74 -99 110 -113 47 -17 83 3
147 81 34 41 110 118 169 172 117 105 227 222 251 269 15 29 15 42 -3 204 -7
63 9 70 44 17 28 -45 77 -75 120 -75 32 0 32 0 18 -28 -8 -16 -35 -50 -59 -78
-24 -27 -95 -127 -156 -223 -197 -307 -313 -455 -404 -516 -28 -19 -63 -35
-77 -35 -51 0 -217 118 -385 274 -47 43 -88 77 -90 74 -3 -3 -14 -38 -25 -77
l-20 -72 21 -30 c29 -41 186 -171 284 -234 142 -93 228 -107 332 -55 114 57
260 235 415 505 116 202 157 265 213 333 78 94 107 152 108 220 3 98 -53 170
-173 226 -73 34 -108 33 -156 -4z"/>
<path d="M5967 6489 c-28 -16 -45 -60 -71 -182 -30 -140 -70 -236 -165 -390
-98 -161 -215 -426 -223 -507 -3 -34 -2 -35 52 -53 30 -9 60 -15 66 -13 6 2
28 44 48 93 48 111 159 326 223 429 92 148 149 315 160 465 6 95 -5 142 -38
159 -22 12 -29 12 -52 -1z"/>
<path d="M2735 4833 c-138 -17 -309 -87 -376 -154 -95 -95 -145 -221 -136
-342 5 -67 130 -501 312 -1082 26 -82 52 -166 57 -185 5 -19 27 -89 47 -155
21 -66 62 -198 92 -292 29 -95 57 -173 61 -173 16 0 8 179 -12 275 -29 139
-27 189 11 264 40 80 85 113 209 152 129 40 160 73 300 319 45 79 101 173 125
208 l43 63 -19 57 c-131 416 -252 770 -274 807 -93 160 -276 259 -440 238z"/>
<path d="M4439 4737 c-31 -56 -104 -204 -163 -327 -181 -379 -178 -376 -359
-466 -116 -58 -174 -96 -265 -172 -82 -69 -131 -139 -317 -457 -64 -108 -149
-207 -205 -235 -19 -9 -68 -28 -109 -40 -89 -28 -134 -67 -151 -130 -11 -39
-9 -61 14 -175 19 -98 25 -158 24 -245 0 -94 3 -127 22 -180 39 -116 88 -170
153 -170 70 0 93 40 100 175 8 160 77 323 194 461 124 145 184 197 656 569 75
60 194 138 301 200 217 124 302 196 572 485 120 129 274 325 262 335 -7 6
-154 65 -163 65 -6 0 -15 -8 -21 -17 -6 -10 -60 -76 -120 -148 -149 -178 -434
-462 -504 -501 -216 -122 -271 -159 -465 -313 -565 -447 -800 -750 -822 -1058
-3 -46 -9 -83 -14 -83 -16 0 -29 107 -29 243 0 88 -6 170 -15 214 -15 73 -11
109 16 129 8 5 46 20 86 32 128 40 223 134 394 389 62 92 129 191 150 219 67
91 195 190 309 239 85 37 185 100 235 150 57 57 110 143 182 295 27 58 91 183
141 278 51 95 92 177 92 181 0 5 -16 29 -36 53 -20 23 -44 58 -52 76 -9 17
-20 32 -26 32 -6 0 -36 -46 -67 -103z"/>
<path d="M7390 4813 c-102 -35 -228 -142 -274 -232 -19 -36 -233 -691 -346
-1056 -26 -84 -138 -430 -150 -465 -5 -14 -37 -113 -70 -220 -34 -107 -68
-213 -75 -235 -8 -22 -47 -141 -87 -265 l-73 -225 0 -120 c0 -118 1 -121 37
-196 71 -145 200 -240 393 -289 181 -46 331 -12 446 103 95 94 90 80 364 952
85 270 180 578 213 685 33 107 103 339 157 515 169 550 177 593 135 727 -49
160 -165 259 -371 317 -91 25 -231 27 -299 4z"/>
<path d="M3573 2833 c-136 -134 -198 -219 -250 -344 -21 -52 -28 -87 -33 -184
-9 -157 -32 -206 -117 -249 -39 -20 -132 -21 -177 -2 -18 7 -49 31 -69 51 -21
21 -39 36 -41 34 -9 -8 122 -378 149 -426 47 -80 112 -140 192 -180 65 -32 86
-37 162 -41 221 -11 470 116 551 281 40 82 63 196 55 267 -7 55 -64 254 -148
510 -24 74 -63 197 -87 273 -25 75 -47 137 -51 137 -4 0 -65 -57 -136 -127z"/>
  </g>
</svg>
