<?xml version="1.0" encoding="UTF-8"?>
<svg xmlns="http://www.w3.org/2000/svg" width="1024" height="1024" viewBox="0 0 1024 1024">
  <defs>
    <linearGradient id="green" x1="0" y1="0" x2="0" y2="1">
      <stop offset="0" stop-color="#7BF06E"/>
      <stop offset="1" stop-color="#34D399"/>
    </linearGradient>
  </defs>

  <!-- Navy rounded-square background -->
  <rect x="96" y="96" width="832" height="832" rx="180" fill="#0A1628"/>

  <!-- Traced foreground (headphones + runner) in green gradient -->
  <g transform="translate(0,1024) scale(0.1,-0.1)" fill="url(#green)" stroke="none">
    <!-- Headphone band -->
    <path d="M4800 7764 c-526 -74 -990 -301 -1369 -669 -376 -366 -610 -810 -690
-1315 -19 -113 -41 -340 -41 -410 0 -22 -11 -34 -57 -65 -97 -64 -186 -162
-232 -256 -60 -124 -74 -208 -74 -429 1 -453 92 -777 271 -959 112 -113 286
-190 484 -212 134 -15 142 -12 134 44 -28 194 -64 673 -78 1052 -16 450 7
1085 48 1303 131 702 756 1317 1499 1477 512 110 1039 20 1472 -251 134 -84
224 -155 345 -272 236 -229 384 -457 477 -737 79 -238 106 -544 105 -1190 -1
-478 -22 -855 -70 -1279 -11 -98 -12 -142 -5 -149 13 -13 196 5 285 28 82 22
191 74 263 128 194 144 298 414 333 862 35 438 -55 678 -316 849 l-41 27 -7
135 c-31 596 -242 1106 -635 1529 -369 399 -847 656 -1392 750 -136 24 -569
29 -709 9z"/>
    <!-- Runner body -->
    <path d="M5437 5977 c-89 -29 -146 -108 -147 -204 0 -40 8 -67 35 -119 63
-120 52 -137 -87 -139 -97 -1 -109 -4 -208 -44 -58 -23 -156 -65 -218 -93
-125 -56 -142 -74 -142 -148 0 -88 68 -370 96 -401 25 -27 112 -26 148 2 35
28 36 91 2 137 -13 18 -29 60 -35 95 -7 34 -14 72 -17 84 -3 14 2 26 14 32 29
15 203 63 209 57 6 -6 -24 -291 -38 -356 -6 -28 -28 -67 -57 -104 -96 -123
-108 -253 -30 -342 36 -41 227 -140 439 -228 74 -31 140 -59 147 -63 7 -5 46
-84 86 -178 41 -93 94 -214 120 -268 25 -55 50 -115 56 -135 13 -49 21 -59 50
-70 37 -14 92 3 212 64 129 66 178 108 178 151 0 56 -22 62 -170 49 l-86 -8
-17 38 c-9 22 -53 143 -97 269 -44 127 -86 241 -92 254 -11 19 -103 88 -395
294 l-41 29 28 41 c15 23 55 97 90 165 l62 123 39 -80 c60 -123 100 -135 209
-64 90 59 279 214 285 234 8 25 -2 57 -32 97 -19 25 -31 32 -57 32 -38 0 -80
-29 -100 -68 -8 -16 -42 -43 -80 -64 l-66 -36 -41 131 c-41 133 -66 190 -100
237 -16 21 -17 31 -8 63 9 34 13 37 47 37 50 1 70 18 88 80 9 29 22 60 30 67
18 18 17 22 -1 66 -9 21 -15 67 -15 108 0 89 -21 128 -86 159 -54 27 -153 35
-207 17z"/>
    <!-- Right earcup -->
    <path d="M6745 5569 c-118 -17 -217 -106 -249 -223 -11 -39 -16 -163 -20 -531
-5 -419 -18 -768 -42 -1132 -6 -85 -4 -111 10 -148 36 -93 118 -128 301 -129
118 -1 120 -1 131 24 19 39 50 337 76 725 13 207 17 1293 5 1357 -5 21 -16 42
-25 47 -28 14 -123 19 -187 10z"/>
    <!-- Left earcup -->
    <path d="M3305 5557 c-16 -12 -19 -37 -26 -223 -4 -115 -8 -315 -8 -444 -2
-597 55 -1422 101 -1477 7 -9 39 -13 92 -13 152 0 253 27 302 82 45 48 47 78
30 376 -26 447 -36 755 -36 1108 0 274 -3 340 -16 384 -30 101 -95 170 -193
205 -56 19 -219 21 -246 2z"/>
    <!-- Runner detail -->
    <path d="M4877 4378 c-9 -37 -26 -92 -38 -123 l-20 -55 -79 0 c-43 0 -144 -11
-224 -25 -80 -14 -181 -25 -224 -25 -69 0 -81 -3 -99 -22 -32 -34 -54 -129
-60 -260 -6 -115 -5 -116 20 -142 48 -48 84 -27 153 90 21 36 53 79 72 95 l33
29 272 0 c248 0 275 2 303 19 21 13 54 59 103 146 40 70 71 128 69 130 -2 1
-27 15 -56 29 -36 18 -77 29 -123 33 -78 7 -77 5 -81 98 l-3 50 -18 -67z"/>
  </g>
</svg>
